CATALOG 0000000000000
PERFORMER "Marvin Gaye and Freddie Jackson"
TITLE "On Tour - Disc 1"
FILE "marvin_gaye_and_freddie_jackson-2001-on_tour-cd1-kmf.wav" WAVE
TRACK 01 AUDIO
    TITLE "I Heard It Through The Grapevine"
    PERFORMER "Marvin Gaye and Freddie Jackson"
    FLAGS DCP
    INDEX 01 00:00:00
  TRACK 02 AUDIO
    TITLE "Come Get To This"
    PERFORMER "Marvin Gaye and Freddie Jackson"
    FLAGS DCP
    INDEX 01 03:57:64
  TRACK 03 AUDIO
    TITLE "Let's Get In On"
    PERFORMER "Marvin Gaye and Freddie Jackson"
    FLAGS DCP
    INDEX 01 07:34:61
  TRACK 04 AUDIO
    TITLE "God Is My Friend"
    PERFORMER "Marvin Gaye and Freddie Jackson"
    FLAGS DCP
    INDEX 01 12:56:41
  TRACK 05 AUDIO
    TITLE "What's Going On"
    PERFORMER "Marvin Gaye and Freddie Jackson"
    FLAGS DCP
    INDEX 01 15:11:54
  TRACK 06 AUDIO
    TITLE "Inner City Blues"
    PERFORMER "Marvin Gaye and Freddie Jackson"
    FLAGS DCP
    INDEX 01 19:10:33
  TRACK 07 AUDIO
    TITLE "Joy"
    PERFORMER "Marvin Gaye and Freddie Jackson"
    FLAGS DCP
    INDEX 00 24:32:65
    INDEX 01 24:34:35
  TRACK 08 AUDIO
    TITLE "Medley (Ain't Nothing Like The Real Thing...)"
    PERFORMER "Marvin Gaye and Freddie Jackson"
    FLAGS DCP
    INDEX 01 29:03:56
  TRACK 09 AUDIO
    TITLE "Rockin' After Midnight"
    PERFORMER "Marvin Gaye and Freddie Jackson"
    FLAGS DCP
    INDEX 01 37:23:42
  TRACK 10 AUDIO
    TITLE "Distant Lover"
    PERFORMER "Marvin Gaye and Freddie Jackson"
    FLAGS DCP
    INDEX 01 46:21:21
  TRACK 11 AUDIO
    TITLE "Sexual Healing"
    PERFORMER "Marvin Gaye and Freddie Jackson"
    FLAGS DCP
    INDEX 01 56:00:42
